<?xml version="1.0" encoding="utf-8" standalone="no"?>
<!DOCTYPE svg PUBLIC "-//W3C//DTD SVG 1.1//EN"
  "http://www.w3.org/Graphics/SVG/1.1/DTD/svg11.dtd">
<svg xmlns:xlink="http://www.w3.org/1999/xlink" width="385.78125pt" height="392.514375pt" viewBox="0 0 385.78125 392.514375" xmlns="http://www.w3.org/2000/svg" version="1.1">
 <metadata>
  <rdf:RDF xmlns:dc="http://purl.org/dc/elements/1.1/" xmlns:cc="http://creativecommons.org/ns#" xmlns:rdf="http://www.w3.org/1999/02/22-rdf-syntax-ns#">
   <cc:Work>
    <dc:type rdf:resource="http://purl.org/dc/dcmitype/StillImage"/>
    <dc:date>2025-11-30T18:49:26.902509</dc:date>
    <dc:format>image/svg+xml</dc:format>
    <dc:creator>
     <cc:Agent>
      <dc:title>Matplotlib v3.10.3, https://matplotlib.org/</dc:title>
     </cc:Agent>
    </dc:creator>
   </cc:Work>
  </rdf:RDF>
 </metadata>
 <defs>
  <style type="text/css">*{stroke-linejoin: round; stroke-linecap: butt}</style>
 </defs>
 <g id="figure_1">
  <g id="patch_1">
   <path d="M 0 392.514375 
L 385.78125 392.514375 
L 385.78125 0 
L 0 0 
z
" style="fill: #ffffff"/>
  </g>
  <g id="axes_1">
   <g id="patch_2">
    <path d="M 43.78125 354.958125 
L 378.58125 354.958125 
L 378.58125 22.318125 
L 43.78125 22.318125 
z
" style="fill: #ffffff"/>
   </g>
   <g id="matplotlib.axis_1">
    <g id="xtick_1">
     <g id="line2d_1">
      <defs>
       <path id="m8d7396f460" d="M 0 0 
L 0 3.5 
" style="stroke: #000000; stroke-width: 0.8"/>
      </defs>
      <g>
       <use xlink:href="#m8d7396f460" x="58.999432" y="354.958125" style="stroke: #000000; stroke-width: 0.8"/>
      </g>
     </g>
     <g id="text_1">
      <!-- 0.0 -->
      <g transform="translate(51.047869 369.556562) scale(0.1 -0.1)">
       <defs>
        <path id="DejaVuSans-30" d="M 2034 4250 
Q 1547 4250 1301 3770 
Q 1056 3291 1056 2328 
Q 1056 1369 1301 889 
Q 1547 409 2034 409 
Q 2525 409 2770 889 
Q 3016 1369 3016 2328 
Q 3016 3291 2770 3770 
Q 2525 4250 2034 4250 
z
M 2034 4750 
Q 2819 4750 3233 4129 
Q 3647 3509 3647 2328 
Q 3647 1150 3233 529 
Q 2819 -91 2034 -91 
Q 1250 -91 836 529 
Q 422 1150 422 2328 
Q 422 3509 836 4129 
Q 1250 4750 2034 4750 
z
" transform="scale(0.015625)"/>
        <path id="DejaVuSans-2e" d="M 684 794 
L 1344 794 
L 1344 0 
L 684 0 
L 684 794 
z
" transform="scale(0.015625)"/>
       </defs>
       <use xlink:href="#DejaVuSans-30"/>
       <use xlink:href="#DejaVuSans-2e" transform="translate(63.623047 0)"/>
       <use xlink:href="#DejaVuSans-30" transform="translate(95.410156 0)"/>
      </g>
     </g>
    </g>
    <g id="xtick_2">
     <g id="line2d_2">
      <g>
       <use xlink:href="#m8d7396f460" x="119.872159" y="354.958125" style="stroke: #000000; stroke-width: 0.8"/>
      </g>
     </g>
     <g id="text_2">
      <!-- 0.2 -->
      <g transform="translate(111.920597 369.556562) scale(0.1 -0.1)">
       <defs>
        <path id="DejaVuSans-32" d="M 1228 531 
L 3431 531 
L 3431 0 
L 469 0 
L 469 531 
Q 828 903 1448 1529 
Q 2069 2156 2228 2338 
Q 2531 2678 2651 2914 
Q 2772 3150 2772 3378 
Q 2772 3750 2511 3984 
Q 2250 4219 1831 4219 
Q 1534 4219 1204 4116 
Q 875 4013 500 3803 
L 500 4441 
Q 881 4594 1212 4672 
Q 1544 4750 1819 4750 
Q 2544 4750 2975 4387 
Q 3406 4025 3406 3419 
Q 3406 3131 3298 2873 
Q 3191 2616 2906 2266 
Q 2828 2175 2409 1742 
Q 1991 1309 1228 531 
z
" transform="scale(0.015625)"/>
       </defs>
       <use xlink:href="#DejaVuSans-30"/>
       <use xlink:href="#DejaVuSans-2e" transform="translate(63.623047 0)"/>
       <use xlink:href="#DejaVuSans-32" transform="translate(95.410156 0)"/>
      </g>
     </g>
    </g>
    <g id="xtick_3">
     <g id="line2d_3">
      <g>
       <use xlink:href="#m8d7396f460" x="180.744886" y="354.958125" style="stroke: #000000; stroke-width: 0.8"/>
      </g>
     </g>
     <g id="text_3">
      <!-- 0.4 -->
      <g transform="translate(172.793324 369.556562) scale(0.1 -0.1)">
       <defs>
        <path id="DejaVuSans-34" d="M 2419 4116 
L 825 1625 
L 2419 1625 
L 2419 4116 
z
M 2253 4666 
L 3047 4666 
L 3047 1625 
L 3713 1625 
L 3713 1100 
L 3047 1100 
L 3047 0 
L 2419 0 
L 2419 1100 
L 313 1100 
L 313 1709 
L 2253 4666 
z
" transform="scale(0.015625)"/>
       </defs>
       <use xlink:href="#DejaVuSans-30"/>
       <use xlink:href="#DejaVuSans-2e" transform="translate(63.623047 0)"/>
       <use xlink:href="#DejaVuSans-34" transform="translate(95.410156 0)"/>
      </g>
     </g>
    </g>
    <g id="xtick_4">
     <g id="line2d_4">
      <g>
       <use xlink:href="#m8d7396f460" x="241.617614" y="354.958125" style="stroke: #000000; stroke-width: 0.8"/>
      </g>
     </g>
     <g id="text_4">
      <!-- 0.6 -->
      <g transform="translate(233.666051 369.556562) scale(0.1 -0.1)">
       <defs>
        <path id="DejaVuSans-36" d="M 2113 2584 
Q 1688 2584 1439 2293 
Q 1191 2003 1191 1497 
Q 1191 994 1439 701 
Q 1688 409 2113 409 
Q 2538 409 2786 701 
Q 3034 994 3034 1497 
Q 3034 2003 2786 2293 
Q 2538 2584 2113 2584 
z
M 3366 4563 
L 3366 3988 
Q 3128 4100 2886 4159 
Q 2644 4219 2406 4219 
Q 1781 4219 1451 3797 
Q 1122 3375 1075 2522 
Q 1259 2794 1537 2939 
Q 1816 3084 2150 3084 
Q 2853 3084 3261 2657 
Q 3669 2231 3669 1497 
Q 3669 778 3244 343 
Q 2819 -91 2113 -91 
Q 1303 -91 875 529 
Q 447 1150 447 2328 
Q 447 3434 972 4092 
Q 1497 4750 2381 4750 
Q 2619 4750 2861 4703 
Q 3103 4656 3366 4563 
z
" transform="scale(0.015625)"/>
       </defs>
       <use xlink:href="#DejaVuSans-30"/>
       <use xlink:href="#DejaVuSans-2e" transform="translate(63.623047 0)"/>
       <use xlink:href="#DejaVuSans-36" transform="translate(95.410156 0)"/>
      </g>
     </g>
    </g>
    <g id="xtick_5">
     <g id="line2d_5">
      <g>
       <use xlink:href="#m8d7396f460" x="302.490341" y="354.958125" style="stroke: #000000; stroke-width: 0.8"/>
      </g>
     </g>
     <g id="text_5">
      <!-- 0.8 -->
      <g transform="translate(294.538778 369.556562) scale(0.1 -0.1)">
       <defs>
        <path id="DejaVuSans-38" d="M 2034 2216 
Q 1584 2216 1326 1975 
Q 1069 1734 1069 1313 
Q 1069 891 1326 650 
Q 1584 409 2034 409 
Q 2484 409 2743 651 
Q 3003 894 3003 1313 
Q 3003 1734 2745 1975 
Q 2488 2216 2034 2216 
z
M 1403 2484 
Q 997 2584 770 2862 
Q 544 3141 544 3541 
Q 544 4100 942 4425 
Q 1341 4750 2034 4750 
Q 2731 4750 3128 4425 
Q 3525 4100 3525 3541 
Q 3525 3141 3298 2862 
Q 3072 2584 2669 2484 
Q 3125 2378 3379 2068 
Q 3634 1759 3634 1313 
Q 3634 634 3220 271 
Q 2806 -91 2034 -91 
Q 1263 -91 848 271 
Q 434 634 434 1313 
Q 434 1759 690 2068 
Q 947 2378 1403 2484 
z
M 1172 3481 
Q 1172 3119 1398 2916 
Q 1625 2713 2034 2713 
Q 2441 2713 2670 2916 
Q 2900 3119 2900 3481 
Q 2900 3844 2670 4047 
Q 2441 4250 2034 4250 
Q 1625 4250 1398 4047 
Q 1172 3844 1172 3481 
z
" transform="scale(0.015625)"/>
       </defs>
       <use xlink:href="#DejaVuSans-30"/>
       <use xlink:href="#DejaVuSans-2e" transform="translate(63.623047 0)"/>
       <use xlink:href="#DejaVuSans-38" transform="translate(95.410156 0)"/>
      </g>
     </g>
    </g>
    <g id="xtick_6">
     <g id="line2d_6">
      <g>
       <use xlink:href="#m8d7396f460" x="363.363068" y="354.958125" style="stroke: #000000; stroke-width: 0.8"/>
      </g>
     </g>
     <g id="text_6">
      <!-- 1.0 -->
      <g transform="translate(355.411506 369.556562) scale(0.1 -0.1)">
       <defs>
        <path id="DejaVuSans-31" d="M 794 531 
L 1825 531 
L 1825 4091 
L 703 3866 
L 703 4441 
L 1819 4666 
L 2450 4666 
L 2450 531 
L 3481 531 
L 3481 0 
L 794 0 
L 794 531 
z
" transform="scale(0.015625)"/>
       </defs>
       <use xlink:href="#DejaVuSans-31"/>
       <use xlink:href="#DejaVuSans-2e" transform="translate(63.623047 0)"/>
       <use xlink:href="#DejaVuSans-30" transform="translate(95.410156 0)"/>
      </g>
     </g>
    </g>
    <g id="text_7">
     <!-- False Positive Rate -->
     <g transform="translate(164.714844 383.234687) scale(0.1 -0.1)">
      <defs>
       <path id="DejaVuSans-46" d="M 628 4666 
L 3309 4666 
L 3309 4134 
L 1259 4134 
L 1259 2759 
L 3109 2759 
L 3109 2228 
L 1259 2228 
L 1259 0 
L 628 0 
L 628 4666 
z
" transform="scale(0.015625)"/>
       <path id="DejaVuSans-61" d="M 2194 1759 
Q 1497 1759 1228 1600 
Q 959 1441 959 1056 
Q 959 750 1161 570 
Q 1363 391 1709 391 
Q 2188 391 2477 730 
Q 2766 1069 2766 1631 
L 2766 1759 
L 2194 1759 
z
M 3341 1997 
L 3341 0 
L 2766 0 
L 2766 531 
Q 2569 213 2275 61 
Q 1981 -91 1556 -91 
Q 1019 -91 701 211 
Q 384 513 384 1019 
Q 384 1609 779 1909 
Q 1175 2209 1959 2209 
L 2766 2209 
L 2766 2266 
Q 2766 2663 2505 2880 
Q 2244 3097 1772 3097 
Q 1472 3097 1187 3025 
Q 903 2953 641 2809 
L 641 3341 
Q 956 3463 1253 3523 
Q 1550 3584 1831 3584 
Q 2591 3584 2966 3190 
Q 3341 2797 3341 1997 
z
" transform="scale(0.015625)"/>
       <path id="DejaVuSans-6c" d="M 603 4863 
L 1178 4863 
L 1178 0 
L 603 0 
L 603 4863 
z
" transform="scale(0.015625)"/>
       <path id="DejaVuSans-73" d="M 2834 3397 
L 2834 2853 
Q 2591 2978 2328 3040 
Q 2066 3103 1784 3103 
Q 1356 3103 1142 2972 
Q 928 2841 928 2578 
Q 928 2378 1081 2264 
Q 1234 2150 1697 2047 
L 1894 2003 
Q 2506 1872 2764 1633 
Q 3022 1394 3022 966 
Q 3022 478 2636 193 
Q 2250 -91 1575 -91 
Q 1294 -91 989 -36 
Q 684 19 347 128 
L 347 722 
Q 666 556 975 473 
Q 1284 391 1588 391 
Q 1994 391 2212 530 
Q 2431 669 2431 922 
Q 2431 1156 2273 1281 
Q 2116 1406 1581 1522 
L 1381 1569 
Q 847 1681 609 1914 
Q 372 2147 372 2553 
Q 372 3047 722 3315 
Q 1072 3584 1716 3584 
Q 2034 3584 2315 3537 
Q 2597 3491 2834 3397 
z
" transform="scale(0.015625)"/>
       <path id="DejaVuSans-65" d="M 3597 1894 
L 3597 1613 
L 953 1613 
Q 991 1019 1311 708 
Q 1631 397 2203 397 
Q 2534 397 2845 478 
Q 3156 559 3463 722 
L 3463 178 
Q 3153 47 2828 -22 
Q 2503 -91 2169 -91 
Q 1331 -91 842 396 
Q 353 884 353 1716 
Q 353 2575 817 3079 
Q 1281 3584 2069 3584 
Q 2775 3584 3186 3129 
Q 3597 2675 3597 1894 
z
M 3022 2063 
Q 3016 2534 2758 2815 
Q 2500 3097 2075 3097 
Q 1594 3097 1305 2825 
Q 1016 2553 972 2059 
L 3022 2063 
z
" transform="scale(0.015625)"/>
       <path id="DejaVuSans-20" transform="scale(0.015625)"/>
       <path id="DejaVuSans-50" d="M 1259 4147 
L 1259 2394 
L 2053 2394 
Q 2494 2394 2734 2622 
Q 2975 2850 2975 3272 
Q 2975 3691 2734 3919 
Q 2494 4147 2053 4147 
L 1259 4147 
z
M 628 4666 
L 2053 4666 
Q 2838 4666 3239 4311 
Q 3641 3956 3641 3272 
Q 3641 2581 3239 2228 
Q 2838 1875 2053 1875 
L 1259 1875 
L 1259 0 
L 628 0 
L 628 4666 
z
" transform="scale(0.015625)"/>
       <path id="DejaVuSans-6f" d="M 1959 3097 
Q 1497 3097 1228 2736 
Q 959 2375 959 1747 
Q 959 1119 1226 758 
Q 1494 397 1959 397 
Q 2419 397 2687 759 
Q 2956 1122 2956 1747 
Q 2956 2369 2687 2733 
Q 2419 3097 1959 3097 
z
M 1959 3584 
Q 2709 3584 3137 3096 
Q 3566 2609 3566 1747 
Q 3566 888 3137 398 
Q 2709 -91 1959 -91 
Q 1206 -91 779 398 
Q 353 888 353 1747 
Q 353 2609 779 3096 
Q 1206 3584 1959 3584 
z
" transform="scale(0.015625)"/>
       <path id="DejaVuSans-69" d="M 603 3500 
L 1178 3500 
L 1178 0 
L 603 0 
L 603 3500 
z
M 603 4863 
L 1178 4863 
L 1178 4134 
L 603 4134 
L 603 4863 
z
" transform="scale(0.015625)"/>
       <path id="DejaVuSans-74" d="M 1172 4494 
L 1172 3500 
L 2356 3500 
L 2356 3053 
L 1172 3053 
L 1172 1153 
Q 1172 725 1289 603 
Q 1406 481 1766 481 
L 2356 481 
L 2356 0 
L 1766 0 
Q 1100 0 847 248 
Q 594 497 594 1153 
L 594 3053 
L 172 3053 
L 172 3500 
L 594 3500 
L 594 4494 
L 1172 4494 
z
" transform="scale(0.015625)"/>
       <path id="DejaVuSans-76" d="M 191 3500 
L 800 3500 
L 1894 563 
L 2988 3500 
L 3597 3500 
L 2284 0 
L 1503 0 
L 191 3500 
z
" transform="scale(0.015625)"/>
       <path id="DejaVuSans-52" d="M 2841 2188 
Q 3044 2119 3236 1894 
Q 3428 1669 3622 1275 
L 4263 0 
L 3584 0 
L 2988 1197 
Q 2756 1666 2539 1819 
Q 2322 1972 1947 1972 
L 1259 1972 
L 1259 0 
L 628 0 
L 628 4666 
L 2053 4666 
Q 2853 4666 3247 4331 
Q 3641 3997 3641 3322 
Q 3641 2881 3436 2590 
Q 3231 2300 2841 2188 
z
M 1259 4147 
L 1259 2491 
L 2053 2491 
Q 2509 2491 2742 2702 
Q 2975 2913 2975 3322 
Q 2975 3731 2742 3939 
Q 2509 4147 2053 4147 
L 1259 4147 
z
" transform="scale(0.015625)"/>
      </defs>
      <use xlink:href="#DejaVuSans-46"/>
      <use xlink:href="#DejaVuSans-61" transform="translate(48.394531 0)"/>
      <use xlink:href="#DejaVuSans-6c" transform="translate(109.673828 0)"/>
      <use xlink:href="#DejaVuSans-73" transform="translate(137.457031 0)"/>
      <use xlink:href="#DejaVuSans-65" transform="translate(189.556641 0)"/>
      <use xlink:href="#DejaVuSans-20" transform="translate(251.080078 0)"/>
      <use xlink:href="#DejaVuSans-50" transform="translate(282.867188 0)"/>
      <use xlink:href="#DejaVuSans-6f" transform="translate(339.544922 0)"/>
      <use xlink:href="#DejaVuSans-73" transform="translate(400.726562 0)"/>
      <use xlink:href="#DejaVuSans-69" transform="translate(452.826172 0)"/>
      <use xlink:href="#DejaVuSans-74" transform="translate(480.609375 0)"/>
      <use xlink:href="#DejaVuSans-69" transform="translate(519.818359 0)"/>
      <use xlink:href="#DejaVuSans-76" transform="translate(547.601562 0)"/>
      <use xlink:href="#DejaVuSans-65" transform="translate(606.78125 0)"/>
      <use xlink:href="#DejaVuSans-20" transform="translate(668.304688 0)"/>
      <use xlink:href="#DejaVuSans-52" transform="translate(700.091797 0)"/>
      <use xlink:href="#DejaVuSans-61" transform="translate(767.324219 0)"/>
      <use xlink:href="#DejaVuSans-74" transform="translate(828.603516 0)"/>
      <use xlink:href="#DejaVuSans-65" transform="translate(867.8125 0)"/>
     </g>
    </g>
   </g>
   <g id="matplotlib.axis_2">
    <g id="ytick_1">
     <g id="line2d_7">
      <defs>
       <path id="m3bbef24e75" d="M 0 0 
L -3.5 0 
" style="stroke: #000000; stroke-width: 0.8"/>
      </defs>
      <g>
       <use xlink:href="#m3bbef24e75" x="43.78125" y="339.838125" style="stroke: #000000; stroke-width: 0.8"/>
      </g>
     </g>
     <g id="text_8">
      <!-- 0.0 -->
      <g transform="translate(20.878125 343.637344) scale(0.1 -0.1)">
       <use xlink:href="#DejaVuSans-30"/>
       <use xlink:href="#DejaVuSans-2e" transform="translate(63.623047 0)"/>
       <use xlink:href="#DejaVuSans-30" transform="translate(95.410156 0)"/>
      </g>
     </g>
    </g>
    <g id="ytick_2">
     <g id="line2d_8">
      <g>
       <use xlink:href="#m3bbef24e75" x="43.78125" y="279.358125" style="stroke: #000000; stroke-width: 0.8"/>
      </g>
     </g>
     <g id="text_9">
      <!-- 0.2 -->
      <g transform="translate(20.878125 283.157344) scale(0.1 -0.1)">
       <use xlink:href="#DejaVuSans-30"/>
       <use xlink:href="#DejaVuSans-2e" transform="translate(63.623047 0)"/>
       <use xlink:href="#DejaVuSans-32" transform="translate(95.410156 0)"/>
      </g>
     </g>
    </g>
    <g id="ytick_3">
     <g id="line2d_9">
      <g>
       <use xlink:href="#m3bbef24e75" x="43.78125" y="218.878125" style="stroke: #000000; stroke-width: 0.8"/>
      </g>
     </g>
     <g id="text_10">
      <!-- 0.4 -->
      <g transform="translate(20.878125 222.677344) scale(0.1 -0.1)">
       <use xlink:href="#DejaVuSans-30"/>
       <use xlink:href="#DejaVuSans-2e" transform="translate(63.623047 0)"/>
       <use xlink:href="#DejaVuSans-34" transform="translate(95.410156 0)"/>
      </g>
     </g>
    </g>
    <g id="ytick_4">
     <g id="line2d_10">
      <g>
       <use xlink:href="#m3bbef24e75" x="43.78125" y="158.398125" style="stroke: #000000; stroke-width: 0.8"/>
      </g>
     </g>
     <g id="text_11">
      <!-- 0.6 -->
      <g transform="translate(20.878125 162.197344) scale(0.1 -0.1)">
       <use xlink:href="#DejaVuSans-30"/>
       <use xlink:href="#DejaVuSans-2e" transform="translate(63.623047 0)"/>
       <use xlink:href="#DejaVuSans-36" transform="translate(95.410156 0)"/>
      </g>
     </g>
    </g>
    <g id="ytick_5">
     <g id="line2d_11">
      <g>
       <use xlink:href="#m3bbef24e75" x="43.78125" y="97.918125" style="stroke: #000000; stroke-width: 0.8"/>
      </g>
     </g>
     <g id="text_12">
      <!-- 0.8 -->
      <g transform="translate(20.878125 101.717344) scale(0.1 -0.1)">
       <use xlink:href="#DejaVuSans-30"/>
       <use xlink:href="#DejaVuSans-2e" transform="translate(63.623047 0)"/>
       <use xlink:href="#DejaVuSans-38" transform="translate(95.410156 0)"/>
      </g>
     </g>
    </g>
    <g id="ytick_6">
     <g id="line2d_12">
      <g>
       <use xlink:href="#m3bbef24e75" x="43.78125" y="37.438125" style="stroke: #000000; stroke-width: 0.8"/>
      </g>
     </g>
     <g id="text_13">
      <!-- 1.0 -->
      <g transform="translate(20.878125 41.237344) scale(0.1 -0.1)">
       <use xlink:href="#DejaVuSans-31"/>
       <use xlink:href="#DejaVuSans-2e" transform="translate(63.623047 0)"/>
       <use xlink:href="#DejaVuSans-30" transform="translate(95.410156 0)"/>
      </g>
     </g>
    </g>
    <g id="text_14">
     <!-- True Positive Rate -->
     <g transform="translate(14.798438 233.167812) rotate(-90) scale(0.1 -0.1)">
      <defs>
       <path id="DejaVuSans-54" d="M -19 4666 
L 3928 4666 
L 3928 4134 
L 2272 4134 
L 2272 0 
L 1638 0 
L 1638 4134 
L -19 4134 
L -19 4666 
z
" transform="scale(0.015625)"/>
       <path id="DejaVuSans-72" d="M 2631 2963 
Q 2534 3019 2420 3045 
Q 2306 3072 2169 3072 
Q 1681 3072 1420 2755 
Q 1159 2438 1159 1844 
L 1159 0 
L 581 0 
L 581 3500 
L 1159 3500 
L 1159 2956 
Q 1341 3275 1631 3429 
Q 1922 3584 2338 3584 
Q 2397 3584 2469 3576 
Q 2541 3569 2628 3553 
L 2631 2963 
z
" transform="scale(0.015625)"/>
       <path id="DejaVuSans-75" d="M 544 1381 
L 544 3500 
L 1119 3500 
L 1119 1403 
Q 1119 906 1312 657 
Q 1506 409 1894 409 
Q 2359 409 2629 706 
Q 2900 1003 2900 1516 
L 2900 3500 
L 3475 3500 
L 3475 0 
L 2900 0 
L 2900 538 
Q 2691 219 2414 64 
Q 2138 -91 1772 -91 
Q 1169 -91 856 284 
Q 544 659 544 1381 
z
M 1991 3584 
L 1991 3584 
z
" transform="scale(0.015625)"/>
      </defs>
      <use xlink:href="#DejaVuSans-54"/>
      <use xlink:href="#DejaVuSans-72" transform="translate(46.333984 0)"/>
      <use xlink:href="#DejaVuSans-75" transform="translate(87.447266 0)"/>
      <use xlink:href="#DejaVuSans-65" transform="translate(150.826172 0)"/>
      <use xlink:href="#DejaVuSans-20" transform="translate(212.349609 0)"/>
      <use xlink:href="#DejaVuSans-50" transform="translate(244.136719 0)"/>
      <use xlink:href="#DejaVuSans-6f" transform="translate(300.814453 0)"/>
      <use xlink:href="#DejaVuSans-73" transform="translate(361.996094 0)"/>
      <use xlink:href="#DejaVuSans-69" transform="translate(414.095703 0)"/>
      <use xlink:href="#DejaVuSans-74" transform="translate(441.878906 0)"/>
      <use xlink:href="#DejaVuSans-69" transform="translate(481.087891 0)"/>
      <use xlink:href="#DejaVuSans-76" transform="translate(508.871094 0)"/>
      <use xlink:href="#DejaVuSans-65" transform="translate(568.050781 0)"/>
      <use xlink:href="#DejaVuSans-20" transform="translate(629.574219 0)"/>
      <use xlink:href="#DejaVuSans-52" transform="translate(661.361328 0)"/>
      <use xlink:href="#DejaVuSans-61" transform="translate(728.59375 0)"/>
      <use xlink:href="#DejaVuSans-74" transform="translate(789.873047 0)"/>
      <use xlink:href="#DejaVuSans-65" transform="translate(829.082031 0)"/>
     </g>
    </g>
   </g>
   <g id="line2d_13">
    <path d="M 58.999432 339.838125 
L 59.441051 338.652243 
L 59.529374 337.46636 
L 60.235964 337.46636 
L 61.119202 323.828713 
L 61.825792 323.235772 
L 62.179087 319.678125 
L 62.355734 319.085184 
L 62.532382 319.085184 
L 62.532382 318.492243 
L 62.709029 318.492243 
L 62.709029 317.30636 
L 62.885677 316.713419 
L 62.974 314.341654 
L 63.062324 314.341654 
L 63.150648 313.748713 
L 63.327295 313.748713 
L 63.68059 312.562831 
L 63.68059 311.96989 
L 63.768914 311.96989 
L 63.857238 311.376949 
L 64.033885 311.376949 
L 64.033885 310.784007 
L 64.38718 310.784007 
L 64.475504 310.191066 
L 64.917123 310.191066 
L 65.09377 309.598125 
L 65.447065 309.598125 
L 65.535389 308.412243 
L 65.977008 308.412243 
L 66.418627 307.819301 
L 66.418627 307.22636 
L 66.683598 307.22636 
L 66.771922 304.854596 
L 68.096778 304.854596 
L 68.450073 303.075772 
L 68.715044 303.075772 
L 68.803368 301.296949 
L 68.891692 300.704007 
L 69.33331 300.704007 
L 69.33331 300.111066 
L 69.598282 300.111066 
L 69.774929 298.332243 
L 70.0399 298.332243 
L 70.128224 297.739301 
L 70.569843 297.739301 
L 70.658167 297.14636 
L 70.923138 297.14636 
L 71.011462 295.960478 
L 71.718052 295.960478 
L 71.983023 294.774596 
L 72.247994 294.774596 
L 72.247994 293.588713 
L 72.424642 292.995772 
L 72.601289 292.995772 
L 72.689613 291.80989 
L 72.777937 291.80989 
L 72.86626 290.031066 
L 73.131232 288.845184 
L 73.396203 288.845184 
L 73.396203 288.252243 
L 73.57285 288.252243 
L 73.57285 287.659301 
L 73.837822 287.659301 
L 74.191117 287.06636 
L 74.456088 287.06636 
L 74.456088 285.880478 
L 74.544412 285.880478 
L 74.721059 285.880478 
L 74.721059 285.287537 
L 75.162678 285.287537 
L 75.339325 284.694596 
L 75.427649 282.915772 
L 75.604296 281.72989 
L 75.780944 281.72989 
L 76.310886 281.136949 
L 76.752505 281.136949 
L 77.017476 279.951066 
L 77.81239 279.951066 
L 77.989038 279.358125 
L 77.989038 278.765184 
L 78.165685 278.765184 
L 78.783951 275.207537 
L 78.960599 275.207537 
L 79.048923 274.021654 
L 79.402218 274.021654 
L 79.402218 273.428713 
L 79.578865 273.428713 
L 79.578865 271.64989 
L 80.020484 271.64989 
L 80.108808 269.278125 
L 80.462103 269.278125 
L 80.462103 268.685184 
L 80.550426 268.685184 
L 80.727074 268.092243 
L 81.080369 268.092243 
L 81.257016 266.313419 
L 81.433664 266.313419 
L 81.433664 265.127537 
L 81.521988 265.127537 
L 81.786959 262.162831 
L 81.963606 261.56989 
L 82.140254 261.56989 
L 82.140254 260.976949 
L 82.75852 260.976949 
L 82.935168 260.384007 
L 83.641758 259.198125 
L 83.818405 259.198125 
L 84.083376 258.605184 
L 84.1717 258.012243 
L 84.524995 258.012243 
L 84.524995 257.419301 
L 84.701643 257.419301 
L 84.789966 256.233419 
L 85.054938 256.233419 
L 85.143261 255.640478 
L 85.58488 255.640478 
L 85.58488 254.454596 
L 85.849851 254.454596 
L 85.849851 253.861654 
L 86.114823 253.861654 
L 86.114823 252.675772 
L 86.556441 252.675772 
L 86.556441 252.082831 
L 87.439679 252.082831 
L 87.439679 250.896949 
L 87.70465 250.896949 
L 87.792974 249.711066 
L 87.969621 249.711066 
L 88.057945 249.118125 
L 88.322916 249.118125 
L 88.499564 248.525184 
L 88.764535 248.525184 
L 88.852859 247.932243 
L 89.11783 247.932243 
L 89.11783 247.339301 
L 89.382801 247.339301 
L 89.471125 245.560478 
L 89.647772 245.560478 
L 89.736096 244.374596 
L 90.619334 244.374596 
L 90.884305 243.781654 
L 91.060952 243.781654 
L 91.2376 243.188713 
L 91.767542 243.188713 
L 91.855866 242.595772 
L 92.120837 242.595772 
L 92.209161 242.002831 
L 92.209161 240.816949 
L 92.297485 240.816949 
L 92.827427 239.631066 
L 93.180722 239.631066 
L 93.269046 239.038125 
L 93.622341 237.852243 
L 93.798989 237.852243 
L 94.240607 236.66636 
L 94.505579 236.66636 
L 94.682226 234.887537 
L 94.947197 234.887537 
L 94.947197 234.294596 
L 95.388816 234.294596 
L 95.47714 233.108713 
L 95.565464 233.108713 
L 95.565464 232.515772 
L 96.272054 232.515772 
L 96.272054 231.922831 
L 96.360377 231.922831 
L 96.713672 229.551066 
L 98.833442 229.551066 
L 98.833442 228.958125 
L 99.363385 228.958125 
L 99.363385 228.365184 
L 99.805003 228.365184 
L 99.893327 227.179301 
L 100.42327 227.179301 
L 100.511593 226.58636 
L 100.688241 226.58636 
L 100.688241 225.993419 
L 100.864888 225.993419 
L 101.12986 224.807537 
L 101.571478 224.807537 
L 101.571478 224.214596 
L 101.924773 224.214596 
L 102.013097 223.621654 
L 102.454716 223.621654 
L 102.454716 223.028713 
L 102.54304 223.028713 
L 102.719687 223.028713 
L 102.719687 221.842831 
L 102.984658 221.842831 
L 102.984658 221.24989 
L 103.426277 221.24989 
L 103.779572 218.878125 
L 103.95622 218.878125 
L 104.221191 217.692243 
L 104.486162 217.692243 
L 104.66281 217.099301 
L 105.281076 217.099301 
L 105.3694 215.913419 
L 105.546047 215.913419 
L 105.546047 215.320478 
L 105.634371 215.320478 
L 106.07599 215.320478 
L 106.164313 213.541654 
L 107.48917 213.541654 
L 107.930788 210.576949 
L 108.284083 210.576949 
L 108.284083 209.984007 
L 108.637378 209.984007 
L 108.725702 207.612243 
L 109.078997 207.612243 
L 109.078997 206.42636 
L 109.697263 206.42636 
L 109.873911 205.240478 
L 110.403853 205.240478 
L 110.403853 204.054596 
L 112.965242 204.054596 
L 113.053566 202.275772 
L 113.141889 202.275772 
L 113.141889 201.682831 
L 113.318537 201.682831 
L 113.318537 201.08989 
L 113.406861 201.08989 
L 114.466746 201.08989 
L 114.466746 200.496949 
L 114.731717 200.496949 
L 114.731717 198.718125 
L 114.908364 198.718125 
L 114.908364 198.125184 
L 115.526631 198.125184 
L 115.526631 197.532243 
L 115.703278 197.532243 
L 115.879926 196.939301 
L 116.056573 196.939301 
L 116.233221 195.753419 
L 116.939811 195.753419 
L 117.028134 193.974596 
L 117.469753 193.974596 
L 117.823048 193.381654 
L 117.999696 193.381654 
L 118.088019 191.602831 
L 119.236228 191.602831 
L 119.324552 190.416949 
L 120.384437 190.416949 
L 120.384437 189.824007 
L 120.826056 189.824007 
L 120.826056 189.231066 
L 121.797617 189.231066 
L 121.797617 188.638125 
L 122.062588 188.638125 
L 122.327559 188.045184 
L 122.945826 188.045184 
L 122.945826 187.452243 
L 123.034149 187.452243 
L 123.210797 187.452243 
L 123.299121 186.859301 
L 123.829063 186.859301 
L 123.829063 186.26636 
L 124.005711 186.26636 
L 124.005711 185.673419 
L 124.800624 185.673419 
L 124.888948 185.080478 
L 124.888948 183.894596 
L 125.41889 183.894596 
L 125.683862 182.708713 
L 126.037157 182.708713 
L 126.213804 182.115772 
L 126.213804 181.522831 
L 127.626984 181.522831 
L 127.715308 179.744007 
L 127.980279 179.744007 
L 128.068603 179.151066 
L 128.24525 179.151066 
L 128.510222 177.965184 
L 128.95184 177.965184 
L 129.305135 176.18636 
L 130.100049 176.18636 
L 130.276697 175.000478 
L 130.894963 175.000478 
L 130.983287 173.814596 
L 132.396467 173.814596 
L 132.573114 173.221654 
L 133.103057 173.221654 
L 133.103057 172.628713 
L 133.809647 172.628713 
L 133.89797 171.442831 
L 134.162942 171.442831 
L 134.162942 169.664007 
L 135.399474 169.664007 
L 135.752769 168.478125 
L 135.841093 166.699301 
L 137.872539 166.699301 
L 137.872539 166.10636 
L 138.8441 166.10636 
L 138.8441 165.513419 
L 139.639014 165.513419 
L 139.727338 164.920478 
L 140.345604 164.920478 
L 140.345604 164.327537 
L 140.875546 164.327537 
L 140.96387 163.734596 
L 141.140518 163.734596 
L 141.140518 163.141654 
L 141.582136 163.141654 
L 141.582136 162.548713 
L 141.758784 162.548713 
L 141.935431 161.362831 
L 142.642021 161.362831 
L 142.730345 160.176949 
L 142.995316 160.176949 
L 142.995316 159.584007 
L 143.348611 159.584007 
L 143.878554 156.619301 
L 143.966878 156.619301 
L 143.966878 156.02636 
L 144.143525 156.02636 
L 144.143525 155.433419 
L 144.49682 155.433419 
L 144.49682 154.840478 
L 145.556705 154.840478 
L 145.645029 154.247537 
L 146.351619 154.247537 
L 146.439943 153.654596 
L 147.058209 153.654596 
L 147.234856 153.061654 
L 148.118094 153.061654 
L 148.118094 152.468713 
L 149.884569 152.468713 
L 149.884569 151.875772 
L 150.414511 151.875772 
L 150.414511 151.282831 
L 150.85613 151.282831 
L 151.121101 150.68989 
L 151.386072 150.68989 
L 151.386072 150.096949 
L 151.651044 150.096949 
L 151.651044 148.911066 
L 152.092662 148.911066 
L 152.092662 148.318125 
L 152.180986 148.318125 
L 152.710929 148.318125 
L 152.710929 147.725184 
L 154.38908 147.725184 
L 154.38908 147.132243 
L 155.272317 147.132243 
L 155.272317 146.539301 
L 155.360641 146.539301 
L 155.537289 146.539301 
L 155.537289 145.94636 
L 156.332202 145.94636 
L 156.332202 145.353419 
L 156.862145 145.353419 
L 156.862145 144.760478 
L 156.950469 144.760478 
L 157.303764 143.574596 
L 158.098677 143.574596 
L 158.187001 142.981654 
L 158.363649 142.981654 
L 158.363649 142.388713 
L 158.451972 142.388713 
L 158.805267 141.795772 
L 158.805267 141.202831 
L 158.893591 141.202831 
L 159.158562 141.202831 
L 159.158562 140.60989 
L 159.423534 140.60989 
L 159.511857 139.424007 
L 160.306771 139.424007 
L 160.306771 138.831066 
L 160.395095 138.831066 
L 160.836714 138.831066 
L 160.925037 137.645184 
L 162.16157 137.645184 
L 162.249893 136.459301 
L 163.398102 136.459301 
L 163.398102 135.86636 
L 164.104692 135.86636 
L 164.104692 135.273419 
L 164.634635 135.273419 
L 164.634635 134.680478 
L 165.429548 134.680478 
L 165.429548 134.087537 
L 167.372671 134.087537 
L 167.549318 133.494596 
L 169.404117 133.494596 
L 169.404117 132.901654 
L 169.93406 132.901654 
L 169.93406 132.308713 
L 170.110707 132.308713 
L 170.287355 131.715772 
L 170.64065 131.715772 
L 170.728973 131.122831 
L 171.170592 131.122831 
L 171.170592 130.52989 
L 172.318801 130.52989 
L 172.318801 129.936949 
L 173.113715 129.936949 
L 173.113715 129.344007 
L 173.643657 129.344007 
L 173.643657 128.751066 
L 173.908628 128.751066 
L 173.908628 128.158125 
L 174.350247 128.158125 
L 174.350247 127.565184 
L 174.968513 127.565184 
L 174.968513 126.972243 
L 176.646664 126.972243 
L 176.646664 126.379301 
L 177.088283 126.379301 
L 177.088283 125.78636 
L 177.441578 125.78636 
L 177.706549 125.193419 
L 177.794873 124.007537 
L 179.384701 124.007537 
L 179.384701 123.414596 
L 179.561348 123.414596 
L 179.561348 122.821654 
L 180.002967 122.821654 
L 180.002967 122.228713 
L 182.299384 122.228713 
L 182.476032 121.635772 
L 183.447593 121.635772 
L 183.447593 121.042831 
L 183.712564 121.042831 
L 183.712564 120.44989 
L 185.214068 120.44989 
L 185.390716 119.264007 
L 187.775457 119.264007 
L 188.040428 118.078125 
L 189.453608 118.078125 
L 189.453608 117.485184 
L 189.718579 117.485184 
L 189.718579 116.892243 
L 190.955112 116.892243 
L 190.955112 116.299301 
L 192.279968 116.299301 
L 192.279968 114.520478 
L 193.869795 114.520478 
L 193.869795 113.927537 
L 194.046443 113.927537 
L 194.046443 112.148713 
L 194.134767 112.148713 
L 198.021012 112.148713 
L 198.109335 110.962831 
L 198.374307 110.962831 
L 198.46263 110.36989 
L 198.46263 109.184007 
L 200.405753 109.184007 
L 200.494076 107.998125 
L 205.086911 107.998125 
L 205.086911 107.405184 
L 205.440206 107.405184 
L 205.440206 106.812243 
L 209.326451 106.812243 
L 209.76807 106.219301 
L 211.269574 106.219301 
L 211.446221 105.62636 
L 211.622869 105.62636 
L 211.622869 105.033419 
L 214.890847 105.033419 
L 214.890847 104.440478 
L 217.010617 104.440478 
L 217.098941 103.847537 
L 217.275589 103.847537 
L 217.275589 103.254596 
L 217.363912 103.254596 
L 218.600445 103.254596 
L 218.600445 102.661654 
L 219.307035 102.661654 
L 219.307035 102.068713 
L 219.572006 102.068713 
L 219.572006 100.882831 
L 219.925301 100.882831 
L 219.925301 100.28989 
L 221.338481 100.28989 
L 221.691776 99.696949 
L 221.868424 99.696949 
L 221.868424 98.511066 
L 222.575014 98.511066 
L 222.575014 97.918125 
L 223.016632 97.918125 
L 223.19328 96.732243 
L 223.458251 96.732243 
L 223.634898 95.54636 
L 223.811546 95.54636 
L 223.811546 94.953419 
L 224.253165 94.360478 
L 224.429812 94.360478 
L 224.518136 93.767537 
L 225.224726 93.767537 
L 225.578021 93.174596 
L 226.902877 93.174596 
L 226.902877 92.581654 
L 227.079525 92.581654 
L 227.079525 91.988713 
L 227.256172 91.988713 
L 227.344496 91.395772 
L 227.874438 91.395772 
L 227.874438 90.802831 
L 228.316057 90.802831 
L 228.581028 90.20989 
L 230.347503 90.20989 
L 230.347503 89.616949 
L 230.789122 89.616949 
L 231.230741 89.024007 
L 232.025655 89.024007 
L 232.025655 88.431066 
L 237.943346 88.431066 
L 238.296641 87.838125 
L 238.296641 87.245184 
L 242.889476 87.245184 
L 242.977799 86.652243 
L 245.097569 86.652243 
L 245.274217 85.46636 
L 248.277224 85.46636 
L 249.337109 84.873419 
L 250.30867 84.873419 
L 250.30867 84.280478 
L 252.251793 84.280478 
L 252.516764 83.687537 
L 258.78775 83.687537 
L 258.78775 83.094596 
L 260.112607 83.094596 
L 260.112607 82.501654 
L 264.175499 82.501654 
L 264.175499 81.908713 
L 265.235384 81.908713 
L 265.235384 80.722831 
L 266.295269 80.722831 
L 266.295269 80.12989 
L 266.56024 80.12989 
L 266.56024 79.536949 
L 266.648564 79.536949 
L 267.090183 79.536949 
L 267.178506 78.351066 
L 268.591686 78.351066 
L 268.591686 77.758125 
L 270.269838 77.758125 
L 270.269838 77.165184 
L 271.594694 77.165184 
L 272.124636 76.572243 
L 272.566255 76.572243 
L 272.831226 75.979301 
L 274.597701 75.979301 
L 274.597701 75.38636 
L 274.950996 75.38636 
L 275.215967 74.793419 
L 275.569262 74.793419 
L 275.657586 73.607537 
L 275.922557 73.607537 
L 276.275852 73.014596 
L 276.982442 73.014596 
L 276.982442 72.421654 
L 278.483946 72.421654 
L 278.57227 71.828713 
L 281.486954 71.828713 
L 281.663601 71.235772 
L 282.458515 71.235772 
L 282.635162 68.864007 
L 282.81181 68.864007 
L 282.900134 68.271066 
L 283.960019 68.271066 
L 283.960019 67.678125 
L 285.814817 67.678125 
L 285.991465 67.085184 
L 286.963026 67.085184 
L 286.963026 66.492243 
L 287.05135 66.492243 
L 290.142681 66.492243 
L 290.319328 65.30636 
L 291.114242 65.30636 
L 291.202566 64.713419 
L 291.379213 64.713419 
L 291.644185 64.120478 
L 292.527422 64.120478 
L 292.615746 63.527537 
L 292.969041 63.527537 
L 292.969041 62.934596 
L 293.322336 62.934596 
L 293.41066 62.341654 
L 295.442106 62.341654 
L 295.618753 61.748713 
L 296.060372 61.155772 
L 297.6502 61.155772 
L 297.6502 60.562831 
L 298.003494 60.562831 
L 298.180142 59.96989 
L 298.621761 59.96989 
L 298.886732 59.376949 
L 301.801416 59.376949 
L 301.801416 58.784007 
L 301.889739 58.784007 
L 302.066387 58.784007 
L 302.419682 57.598125 
L 304.186157 57.598125 
L 304.627776 56.412243 
L 305.246042 56.412243 
L 305.599337 55.22636 
L 307.012517 55.22636 
L 307.012517 54.633419 
L 307.454136 54.040478 
L 309.750553 54.040478 
L 309.927201 53.447537 
L 310.810438 53.447537 
L 311.958647 52.854596 
L 313.813445 52.854596 
L 313.901769 52.261654 
L 316.904777 52.261654 
L 317.081424 51.668713 
L 319.377842 51.668713 
L 319.996108 50.482831 
L 320.172755 49.88989 
L 325.47218 49.88989 
L 326.17877 49.296949 
L 326.973684 49.296949 
L 327.768598 48.704007 
L 328.740159 48.704007 
L 329.270101 48.111066 
L 332.184785 48.111066 
L 332.184785 47.518125 
L 334.569526 47.518125 
L 334.65785 46.925184 
L 337.925829 46.925184 
L 338.102476 46.332243 
L 339.339009 46.332243 
L 339.427332 45.739301 
L 340.222246 45.739301 
L 340.575541 45.14636 
L 340.752189 45.14636 
L 341.547102 44.553419 
L 341.988721 43.367537 
L 344.196815 43.367537 
L 344.196815 42.774596 
L 344.285139 42.774596 
L 346.846527 42.774596 
L 347.818088 42.181654 
L 347.906412 42.181654 
L 348.613002 41.588713 
L 348.78965 40.995772 
L 351.174391 40.995772 
L 351.439362 40.402831 
L 352.057628 40.402831 
L 352.234276 39.80989 
L 355.767226 39.80989 
L 356.385492 39.216949 
L 357.97532 39.216949 
L 358.240291 38.624007 
L 362.656478 38.624007 
L 363.363068 37.438125 
L 363.363068 37.438125 
" clip-path="url(#p3dd0217fee)" style="fill: none; stroke: #1f77b4; stroke-width: 1.5; stroke-linecap: square"/>
   </g>
   <g id="line2d_14">
    <path d="M 58.999432 339.838125 
L 363.363068 37.438125 
" clip-path="url(#p3dd0217fee)" style="fill: none; stroke-dasharray: 5.55,2.4; stroke-dashoffset: 0; stroke: #000000; stroke-width: 1.5"/>
   </g>
   <g id="patch_3">
    <path d="M 43.78125 354.958125 
L 43.78125 22.318125 
" style="fill: none; stroke: #000000; stroke-width: 0.8; stroke-linejoin: miter; stroke-linecap: square"/>
   </g>
   <g id="patch_4">
    <path d="M 378.58125 354.958125 
L 378.58125 22.318125 
" style="fill: none; stroke: #000000; stroke-width: 0.8; stroke-linejoin: miter; stroke-linecap: square"/>
   </g>
   <g id="patch_5">
    <path d="M 43.78125 354.958125 
L 378.58125 354.958125 
" style="fill: none; stroke: #000000; stroke-width: 0.8; stroke-linejoin: miter; stroke-linecap: square"/>
   </g>
   <g id="patch_6">
    <path d="M 43.78125 22.318125 
L 378.58125 22.318125 
" style="fill: none; stroke: #000000; stroke-width: 0.8; stroke-linejoin: miter; stroke-linecap: square"/>
   </g>
   <g id="text_15">
    <!-- ROC Curve -->
    <g transform="translate(178.490625 16.318125) scale(0.12 -0.12)">
     <defs>
      <path id="DejaVuSans-4f" d="M 2522 4238 
Q 1834 4238 1429 3725 
Q 1025 3213 1025 2328 
Q 1025 1447 1429 934 
Q 1834 422 2522 422 
Q 3209 422 3611 934 
Q 4013 1447 4013 2328 
Q 4013 3213 3611 3725 
Q 3209 4238 2522 4238 
z
M 2522 4750 
Q 3503 4750 4090 4092 
Q 4678 3434 4678 2328 
Q 4678 1225 4090 567 
Q 3503 -91 2522 -91 
Q 1538 -91 948 565 
Q 359 1222 359 2328 
Q 359 3434 948 4092 
Q 1538 4750 2522 4750 
z
" transform="scale(0.015625)"/>
      <path id="DejaVuSans-43" d="M 4122 4306 
L 4122 3641 
Q 3803 3938 3442 4084 
Q 3081 4231 2675 4231 
Q 1875 4231 1450 3742 
Q 1025 3253 1025 2328 
Q 1025 1406 1450 917 
Q 1875 428 2675 428 
Q 3081 428 3442 575 
Q 3803 722 4122 1019 
L 4122 359 
Q 3791 134 3420 21 
Q 3050 -91 2638 -91 
Q 1578 -91 968 557 
Q 359 1206 359 2328 
Q 359 3453 968 4101 
Q 1578 4750 2638 4750 
Q 3056 4750 3426 4639 
Q 3797 4528 4122 4306 
z
" transform="scale(0.015625)"/>
     </defs>
     <use xlink:href="#DejaVuSans-52"/>
     <use xlink:href="#DejaVuSans-4f" transform="translate(69.482422 0)"/>
     <use xlink:href="#DejaVuSans-43" transform="translate(148.193359 0)"/>
     <use xlink:href="#DejaVuSans-20" transform="translate(218.017578 0)"/>
     <use xlink:href="#DejaVuSans-43" transform="translate(249.804688 0)"/>
     <use xlink:href="#DejaVuSans-75" transform="translate(319.628906 0)"/>
     <use xlink:href="#DejaVuSans-72" transform="translate(383.007812 0)"/>
     <use xlink:href="#DejaVuSans-76" transform="translate(424.121094 0)"/>
     <use xlink:href="#DejaVuSans-65" transform="translate(483.300781 0)"/>
    </g>
   </g>
   <g id="legend_1">
    <g id="patch_7">
     <path d="M 50.78125 44.99625 
L 147.2875 44.99625 
Q 149.2875 44.99625 149.2875 42.99625 
L 149.2875 29.318125 
Q 149.2875 27.318125 147.2875 27.318125 
L 50.78125 27.318125 
Q 48.78125 27.318125 48.78125 29.318125 
L 48.78125 42.99625 
Q 48.78125 44.99625 50.78125 44.99625 
z
" style="fill: #ffffff; opacity: 0.8; stroke: #cccccc; stroke-linejoin: miter"/>
    </g>
    <g id="line2d_15">
     <path d="M 52.78125 35.416563 
L 62.78125 35.416563 
L 72.78125 35.416563 
" style="fill: none; stroke: #1f77b4; stroke-width: 1.5; stroke-linecap: square"/>
    </g>
    <g id="text_16">
     <!-- AUC = 0.706 -->
     <g transform="translate(80.78125 38.916563) scale(0.1 -0.1)">
      <defs>
       <path id="DejaVuSans-41" d="M 2188 4044 
L 1331 1722 
L 3047 1722 
L 2188 4044 
z
M 1831 4666 
L 2547 4666 
L 4325 0 
L 3669 0 
L 3244 1197 
L 1141 1197 
L 716 0 
L 50 0 
L 1831 4666 
z
" transform="scale(0.015625)"/>
       <path id="DejaVuSans-55" d="M 556 4666 
L 1191 4666 
L 1191 1831 
Q 1191 1081 1462 751 
Q 1734 422 2344 422 
Q 2950 422 3222 751 
Q 3494 1081 3494 1831 
L 3494 4666 
L 4128 4666 
L 4128 1753 
Q 4128 841 3676 375 
Q 3225 -91 2344 -91 
Q 1459 -91 1007 375 
Q 556 841 556 1753 
L 556 4666 
z
" transform="scale(0.015625)"/>
       <path id="DejaVuSans-3d" d="M 678 2906 
L 4684 2906 
L 4684 2381 
L 678 2381 
L 678 2906 
z
M 678 1631 
L 4684 1631 
L 4684 1100 
L 678 1100 
L 678 1631 
z
" transform="scale(0.015625)"/>
       <path id="DejaVuSans-37" d="M 525 4666 
L 3525 4666 
L 3525 4397 
L 1831 0 
L 1172 0 
L 2766 4134 
L 525 4134 
L 525 4666 
z
" transform="scale(0.015625)"/>
      </defs>
      <use xlink:href="#DejaVuSans-41"/>
      <use xlink:href="#DejaVuSans-55" transform="translate(68.408203 0)"/>
      <use xlink:href="#DejaVuSans-43" transform="translate(141.601562 0)"/>
      <use xlink:href="#DejaVuSans-20" transform="translate(211.425781 0)"/>
      <use xlink:href="#DejaVuSans-3d" transform="translate(243.212891 0)"/>
      <use xlink:href="#DejaVuSans-20" transform="translate(327.001953 0)"/>
      <use xlink:href="#DejaVuSans-30" transform="translate(358.789062 0)"/>
      <use xlink:href="#DejaVuSans-2e" transform="translate(422.412109 0)"/>
      <use xlink:href="#DejaVuSans-37" transform="translate(454.199219 0)"/>
      <use xlink:href="#DejaVuSans-30" transform="translate(517.822266 0)"/>
      <use xlink:href="#DejaVuSans-36" transform="translate(581.445312 0)"/>
     </g>
    </g>
   </g>
  </g>
 </g>
 <defs>
  <clipPath id="p3dd0217fee">
   <rect x="43.78125" y="22.318125" width="334.8" height="332.64"/>
  </clipPath>
 </defs>
</svg>
