<?xml version="1.0" encoding="utf-8" standalone="no"?>
<!DOCTYPE svg PUBLIC "-//W3C//DTD SVG 1.1//EN"
  "http://www.w3.org/Graphics/SVG/1.1/DTD/svg11.dtd">
<svg xmlns:xlink="http://www.w3.org/1999/xlink" width="619.800625pt" height="270.3875pt" viewBox="0 0 619.800625 270.3875" xmlns="http://www.w3.org/2000/svg" version="1.1">
 <metadata>
  <rdf:RDF xmlns:dc="http://purl.org/dc/elements/1.1/" xmlns:cc="http://creativecommons.org/ns#" xmlns:rdf="http://www.w3.org/1999/02/22-rdf-syntax-ns#">
   <cc:Work>
    <dc:type rdf:resource="http://purl.org/dc/dcmitype/StillImage"/>
    <dc:date>2025-12-07T12:52:00.152523</dc:date>
    <dc:format>image/svg+xml</dc:format>
    <dc:creator>
     <cc:Agent>
      <dc:title>Matplotlib v3.9.2, https://matplotlib.org/</dc:title>
     </cc:Agent>
    </dc:creator>
   </cc:Work>
  </rdf:RDF>
 </metadata>
 <defs>
  <style type="text/css">*{stroke-linejoin: round; stroke-linecap: butt}</style>
 </defs>
 <g id="figure_1">
  <g id="patch_1">
   <path d="M 0 270.3875 
L 619.800625 270.3875 
L 619.800625 0 
L 0 0 
z
" style="fill: #ffffff"/>
  </g>
  <g id="axes_1">
   <g id="patch_2">
    <path d="M 54.600625 228.96 
L 612.600625 228.96 
L 612.600625 7.2 
L 54.600625 7.2 
z
" style="fill: #ffffff"/>
   </g>
   <g id="matplotlib.axis_1">
    <g id="xtick_1">
     <g id="line2d_1">
      <defs>
       <path id="m249d184b82" d="M 0 0 
L 0 3.5 
" style="stroke: #000000; stroke-width: 0.8"/>
      </defs>
      <g>
       <use xlink:href="#m249d184b82" x="79.964261" y="228.96" style="stroke: #000000; stroke-width: 0.8"/>
      </g>
     </g>
     <g id="text_1">
      <!-- 0 -->
      <g transform="translate(75.510511 246.597812) scale(0.14 -0.14)">
       <defs>
        <path id="DejaVuSans-30" d="M 2034 4250 
Q 1547 4250 1301 3770 
Q 1056 3291 1056 2328 
Q 1056 1369 1301 889 
Q 1547 409 2034 409 
Q 2525 409 2770 889 
Q 3016 1369 3016 2328 
Q 3016 3291 2770 3770 
Q 2525 4250 2034 4250 
z
M 2034 4750 
Q 2819 4750 3233 4129 
Q 3647 3509 3647 2328 
Q 3647 1150 3233 529 
Q 2819 -91 2034 -91 
Q 1250 -91 836 529 
Q 422 1150 422 2328 
Q 422 3509 836 4129 
Q 1250 4750 2034 4750 
z
" transform="scale(0.015625)"/>
       </defs>
       <use xlink:href="#DejaVuSans-30"/>
      </g>
     </g>
    </g>
    <g id="xtick_2">
     <g id="line2d_2">
      <g>
       <use xlink:href="#m249d184b82" x="165.45006" y="228.96" style="stroke: #000000; stroke-width: 0.8"/>
      </g>
     </g>
     <g id="text_2">
      <!-- 500 -->
      <g transform="translate(152.08881 246.597812) scale(0.14 -0.14)">
       <defs>
        <path id="DejaVuSans-35" d="M 691 4666 
L 3169 4666 
L 3169 4134 
L 1269 4134 
L 1269 2991 
Q 1406 3038 1543 3061 
Q 1681 3084 1819 3084 
Q 2600 3084 3056 2656 
Q 3513 2228 3513 1497 
Q 3513 744 3044 326 
Q 2575 -91 1722 -91 
Q 1428 -91 1123 -41 
Q 819 9 494 109 
L 494 744 
Q 775 591 1075 516 
Q 1375 441 1709 441 
Q 2250 441 2565 725 
Q 2881 1009 2881 1497 
Q 2881 1984 2565 2268 
Q 2250 2553 1709 2553 
Q 1456 2553 1204 2497 
Q 953 2441 691 2322 
L 691 4666 
z
" transform="scale(0.015625)"/>
       </defs>
       <use xlink:href="#DejaVuSans-35"/>
       <use xlink:href="#DejaVuSans-30" x="63.623047"/>
       <use xlink:href="#DejaVuSans-30" x="127.246094"/>
      </g>
     </g>
    </g>
    <g id="xtick_3">
     <g id="line2d_3">
      <g>
       <use xlink:href="#m249d184b82" x="250.935858" y="228.96" style="stroke: #000000; stroke-width: 0.8"/>
      </g>
     </g>
     <g id="text_3">
      <!-- 1000 -->
      <g transform="translate(233.120858 246.597812) scale(0.14 -0.14)">
       <defs>
        <path id="DejaVuSans-31" d="M 794 531 
L 1825 531 
L 1825 4091 
L 703 3866 
L 703 4441 
L 1819 4666 
L 2450 4666 
L 2450 531 
L 3481 531 
L 3481 0 
L 794 0 
L 794 531 
z
" transform="scale(0.015625)"/>
       </defs>
       <use xlink:href="#DejaVuSans-31"/>
       <use xlink:href="#DejaVuSans-30" x="63.623047"/>
       <use xlink:href="#DejaVuSans-30" x="127.246094"/>
       <use xlink:href="#DejaVuSans-30" x="190.869141"/>
      </g>
     </g>
    </g>
    <g id="xtick_4">
     <g id="line2d_4">
      <g>
       <use xlink:href="#m249d184b82" x="336.421656" y="228.96" style="stroke: #000000; stroke-width: 0.8"/>
      </g>
     </g>
     <g id="text_4">
      <!-- 1500 -->
      <g transform="translate(318.606656 246.597812) scale(0.14 -0.14)">
       <use xlink:href="#DejaVuSans-31"/>
       <use xlink:href="#DejaVuSans-35" x="63.623047"/>
       <use xlink:href="#DejaVuSans-30" x="127.246094"/>
       <use xlink:href="#DejaVuSans-30" x="190.869141"/>
      </g>
     </g>
    </g>
    <g id="xtick_5">
     <g id="line2d_5">
      <g>
       <use xlink:href="#m249d184b82" x="421.907455" y="228.96" style="stroke: #000000; stroke-width: 0.8"/>
      </g>
     </g>
     <g id="text_5">
      <!-- 2000 -->
      <g transform="translate(404.092455 246.597812) scale(0.14 -0.14)">
       <defs>
        <path id="DejaVuSans-32" d="M 1228 531 
L 3431 531 
L 3431 0 
L 469 0 
L 469 531 
Q 828 903 1448 1529 
Q 2069 2156 2228 2338 
Q 2531 2678 2651 2914 
Q 2772 3150 2772 3378 
Q 2772 3750 2511 3984 
Q 2250 4219 1831 4219 
Q 1534 4219 1204 4116 
Q 875 4013 500 3803 
L 500 4441 
Q 881 4594 1212 4672 
Q 1544 4750 1819 4750 
Q 2544 4750 2975 4387 
Q 3406 4025 3406 3419 
Q 3406 3131 3298 2873 
Q 3191 2616 2906 2266 
Q 2828 2175 2409 1742 
Q 1991 1309 1228 531 
z
" transform="scale(0.015625)"/>
       </defs>
       <use xlink:href="#DejaVuSans-32"/>
       <use xlink:href="#DejaVuSans-30" x="63.623047"/>
       <use xlink:href="#DejaVuSans-30" x="127.246094"/>
       <use xlink:href="#DejaVuSans-30" x="190.869141"/>
      </g>
     </g>
    </g>
    <g id="xtick_6">
     <g id="line2d_6">
      <g>
       <use xlink:href="#m249d184b82" x="507.393253" y="228.96" style="stroke: #000000; stroke-width: 0.8"/>
      </g>
     </g>
     <g id="text_6">
      <!-- 2500 -->
      <g transform="translate(489.578253 246.597812) scale(0.14 -0.14)">
       <use xlink:href="#DejaVuSans-32"/>
       <use xlink:href="#DejaVuSans-35" x="63.623047"/>
       <use xlink:href="#DejaVuSans-30" x="127.246094"/>
       <use xlink:href="#DejaVuSans-30" x="190.869141"/>
      </g>
     </g>
    </g>
    <g id="xtick_7">
     <g id="line2d_7">
      <g>
       <use xlink:href="#m249d184b82" x="592.879051" y="228.96" style="stroke: #000000; stroke-width: 0.8"/>
      </g>
     </g>
     <g id="text_7">
      <!-- 3000 -->
      <g transform="translate(575.064051 246.597812) scale(0.14 -0.14)">
       <defs>
        <path id="DejaVuSans-33" d="M 2597 2516 
Q 3050 2419 3304 2112 
Q 3559 1806 3559 1356 
Q 3559 666 3084 287 
Q 2609 -91 1734 -91 
Q 1441 -91 1130 -33 
Q 819 25 488 141 
L 488 750 
Q 750 597 1062 519 
Q 1375 441 1716 441 
Q 2309 441 2620 675 
Q 2931 909 2931 1356 
Q 2931 1769 2642 2001 
Q 2353 2234 1838 2234 
L 1294 2234 
L 1294 2753 
L 1863 2753 
Q 2328 2753 2575 2939 
Q 2822 3125 2822 3475 
Q 2822 3834 2567 4026 
Q 2313 4219 1838 4219 
Q 1578 4219 1281 4162 
Q 984 4106 628 3988 
L 628 4550 
Q 988 4650 1302 4700 
Q 1616 4750 1894 4750 
Q 2613 4750 3031 4423 
Q 3450 4097 3450 3541 
Q 3450 3153 3228 2886 
Q 3006 2619 2597 2516 
z
" transform="scale(0.015625)"/>
       </defs>
       <use xlink:href="#DejaVuSans-33"/>
       <use xlink:href="#DejaVuSans-30" x="63.623047"/>
       <use xlink:href="#DejaVuSans-30" x="127.246094"/>
       <use xlink:href="#DejaVuSans-30" x="190.869141"/>
      </g>
     </g>
    </g>
    <g id="text_8">
     <!-- Number of times visited -->
     <g transform="translate(273.474063 261.107812) scale(0.1 -0.1)">
      <defs>
       <path id="DejaVuSans-4e" d="M 628 4666 
L 1478 4666 
L 3547 763 
L 3547 4666 
L 4159 4666 
L 4159 0 
L 3309 0 
L 1241 3903 
L 1241 0 
L 628 0 
L 628 4666 
z
" transform="scale(0.015625)"/>
       <path id="DejaVuSans-75" d="M 544 1381 
L 544 3500 
L 1119 3500 
L 1119 1403 
Q 1119 906 1312 657 
Q 1506 409 1894 409 
Q 2359 409 2629 706 
Q 2900 1003 2900 1516 
L 2900 3500 
L 3475 3500 
L 3475 0 
L 2900 0 
L 2900 538 
Q 2691 219 2414 64 
Q 2138 -91 1772 -91 
Q 1169 -91 856 284 
Q 544 659 544 1381 
z
M 1991 3584 
L 1991 3584 
z
" transform="scale(0.015625)"/>
       <path id="DejaVuSans-6d" d="M 3328 2828 
Q 3544 3216 3844 3400 
Q 4144 3584 4550 3584 
Q 5097 3584 5394 3201 
Q 5691 2819 5691 2113 
L 5691 0 
L 5113 0 
L 5113 2094 
Q 5113 2597 4934 2840 
Q 4756 3084 4391 3084 
Q 3944 3084 3684 2787 
Q 3425 2491 3425 1978 
L 3425 0 
L 2847 0 
L 2847 2094 
Q 2847 2600 2669 2842 
Q 2491 3084 2119 3084 
Q 1678 3084 1418 2786 
Q 1159 2488 1159 1978 
L 1159 0 
L 581 0 
L 581 3500 
L 1159 3500 
L 1159 2956 
Q 1356 3278 1631 3431 
Q 1906 3584 2284 3584 
Q 2666 3584 2933 3390 
Q 3200 3197 3328 2828 
z
" transform="scale(0.015625)"/>
       <path id="DejaVuSans-62" d="M 3116 1747 
Q 3116 2381 2855 2742 
Q 2594 3103 2138 3103 
Q 1681 3103 1420 2742 
Q 1159 2381 1159 1747 
Q 1159 1113 1420 752 
Q 1681 391 2138 391 
Q 2594 391 2855 752 
Q 3116 1113 3116 1747 
z
M 1159 2969 
Q 1341 3281 1617 3432 
Q 1894 3584 2278 3584 
Q 2916 3584 3314 3078 
Q 3713 2572 3713 1747 
Q 3713 922 3314 415 
Q 2916 -91 2278 -91 
Q 1894 -91 1617 61 
Q 1341 213 1159 525 
L 1159 0 
L 581 0 
L 581 4863 
L 1159 4863 
L 1159 2969 
z
" transform="scale(0.015625)"/>
       <path id="DejaVuSans-65" d="M 3597 1894 
L 3597 1613 
L 953 1613 
Q 991 1019 1311 708 
Q 1631 397 2203 397 
Q 2534 397 2845 478 
Q 3156 559 3463 722 
L 3463 178 
Q 3153 47 2828 -22 
Q 2503 -91 2169 -91 
Q 1331 -91 842 396 
Q 353 884 353 1716 
Q 353 2575 817 3079 
Q 1281 3584 2069 3584 
Q 2775 3584 3186 3129 
Q 3597 2675 3597 1894 
z
M 3022 2063 
Q 3016 2534 2758 2815 
Q 2500 3097 2075 3097 
Q 1594 3097 1305 2825 
Q 1016 2553 972 2059 
L 3022 2063 
z
" transform="scale(0.015625)"/>
       <path id="DejaVuSans-72" d="M 2631 2963 
Q 2534 3019 2420 3045 
Q 2306 3072 2169 3072 
Q 1681 3072 1420 2755 
Q 1159 2438 1159 1844 
L 1159 0 
L 581 0 
L 581 3500 
L 1159 3500 
L 1159 2956 
Q 1341 3275 1631 3429 
Q 1922 3584 2338 3584 
Q 2397 3584 2469 3576 
Q 2541 3569 2628 3553 
L 2631 2963 
z
" transform="scale(0.015625)"/>
       <path id="DejaVuSans-20" transform="scale(0.015625)"/>
       <path id="DejaVuSans-6f" d="M 1959 3097 
Q 1497 3097 1228 2736 
Q 959 2375 959 1747 
Q 959 1119 1226 758 
Q 1494 397 1959 397 
Q 2419 397 2687 759 
Q 2956 1122 2956 1747 
Q 2956 2369 2687 2733 
Q 2419 3097 1959 3097 
z
M 1959 3584 
Q 2709 3584 3137 3096 
Q 3566 2609 3566 1747 
Q 3566 888 3137 398 
Q 2709 -91 1959 -91 
Q 1206 -91 779 398 
Q 353 888 353 1747 
Q 353 2609 779 3096 
Q 1206 3584 1959 3584 
z
" transform="scale(0.015625)"/>
       <path id="DejaVuSans-66" d="M 2375 4863 
L 2375 4384 
L 1825 4384 
Q 1516 4384 1395 4259 
Q 1275 4134 1275 3809 
L 1275 3500 
L 2222 3500 
L 2222 3053 
L 1275 3053 
L 1275 0 
L 697 0 
L 697 3053 
L 147 3053 
L 147 3500 
L 697 3500 
L 697 3744 
Q 697 4328 969 4595 
Q 1241 4863 1831 4863 
L 2375 4863 
z
" transform="scale(0.015625)"/>
       <path id="DejaVuSans-74" d="M 1172 4494 
L 1172 3500 
L 2356 3500 
L 2356 3053 
L 1172 3053 
L 1172 1153 
Q 1172 725 1289 603 
Q 1406 481 1766 481 
L 2356 481 
L 2356 0 
L 1766 0 
Q 1100 0 847 248 
Q 594 497 594 1153 
L 594 3053 
L 172 3053 
L 172 3500 
L 594 3500 
L 594 4494 
L 1172 4494 
z
" transform="scale(0.015625)"/>
       <path id="DejaVuSans-69" d="M 603 3500 
L 1178 3500 
L 1178 0 
L 603 0 
L 603 3500 
z
M 603 4863 
L 1178 4863 
L 1178 4134 
L 603 4134 
L 603 4863 
z
" transform="scale(0.015625)"/>
       <path id="DejaVuSans-73" d="M 2834 3397 
L 2834 2853 
Q 2591 2978 2328 3040 
Q 2066 3103 1784 3103 
Q 1356 3103 1142 2972 
Q 928 2841 928 2578 
Q 928 2378 1081 2264 
Q 1234 2150 1697 2047 
L 1894 2003 
Q 2506 1872 2764 1633 
Q 3022 1394 3022 966 
Q 3022 478 2636 193 
Q 2250 -91 1575 -91 
Q 1294 -91 989 -36 
Q 684 19 347 128 
L 347 722 
Q 666 556 975 473 
Q 1284 391 1588 391 
Q 1994 391 2212 530 
Q 2431 669 2431 922 
Q 2431 1156 2273 1281 
Q 2116 1406 1581 1522 
L 1381 1569 
Q 847 1681 609 1914 
Q 372 2147 372 2553 
Q 372 3047 722 3315 
Q 1072 3584 1716 3584 
Q 2034 3584 2315 3537 
Q 2597 3491 2834 3397 
z
" transform="scale(0.015625)"/>
       <path id="DejaVuSans-76" d="M 191 3500 
L 800 3500 
L 1894 563 
L 2988 3500 
L 3597 3500 
L 2284 0 
L 1503 0 
L 191 3500 
z
" transform="scale(0.015625)"/>
       <path id="DejaVuSans-64" d="M 2906 2969 
L 2906 4863 
L 3481 4863 
L 3481 0 
L 2906 0 
L 2906 525 
Q 2725 213 2448 61 
Q 2172 -91 1784 -91 
Q 1150 -91 751 415 
Q 353 922 353 1747 
Q 353 2572 751 3078 
Q 1150 3584 1784 3584 
Q 2172 3584 2448 3432 
Q 2725 3281 2906 2969 
z
M 947 1747 
Q 947 1113 1208 752 
Q 1469 391 1925 391 
Q 2381 391 2643 752 
Q 2906 1113 2906 1747 
Q 2906 2381 2643 2742 
Q 2381 3103 1925 3103 
Q 1469 3103 1208 2742 
Q 947 2381 947 1747 
z
" transform="scale(0.015625)"/>
      </defs>
      <use xlink:href="#DejaVuSans-4e"/>
      <use xlink:href="#DejaVuSans-75" x="74.804688"/>
      <use xlink:href="#DejaVuSans-6d" x="138.183594"/>
      <use xlink:href="#DejaVuSans-62" x="235.595703"/>
      <use xlink:href="#DejaVuSans-65" x="299.072266"/>
      <use xlink:href="#DejaVuSans-72" x="360.595703"/>
      <use xlink:href="#DejaVuSans-20" x="401.708984"/>
      <use xlink:href="#DejaVuSans-6f" x="433.496094"/>
      <use xlink:href="#DejaVuSans-66" x="494.677734"/>
      <use xlink:href="#DejaVuSans-20" x="529.882812"/>
      <use xlink:href="#DejaVuSans-74" x="561.669922"/>
      <use xlink:href="#DejaVuSans-69" x="600.878906"/>
      <use xlink:href="#DejaVuSans-6d" x="628.662109"/>
      <use xlink:href="#DejaVuSans-65" x="726.074219"/>
      <use xlink:href="#DejaVuSans-73" x="787.597656"/>
      <use xlink:href="#DejaVuSans-20" x="839.697266"/>
      <use xlink:href="#DejaVuSans-76" x="871.484375"/>
      <use xlink:href="#DejaVuSans-69" x="930.664062"/>
      <use xlink:href="#DejaVuSans-73" x="958.447266"/>
      <use xlink:href="#DejaVuSans-69" x="1010.546875"/>
      <use xlink:href="#DejaVuSans-74" x="1038.330078"/>
      <use xlink:href="#DejaVuSans-65" x="1077.539062"/>
      <use xlink:href="#DejaVuSans-64" x="1139.0625"/>
     </g>
    </g>
   </g>
   <g id="matplotlib.axis_2">
    <g id="ytick_1">
     <g id="line2d_8">
      <defs>
       <path id="mf73beaf0c0" d="M 0 0 
L -3.5 0 
" style="stroke: #000000; stroke-width: 0.8"/>
      </defs>
      <g>
       <use xlink:href="#mf73beaf0c0" x="54.600625" y="228.96" style="stroke: #000000; stroke-width: 0.8"/>
      </g>
     </g>
     <g id="text_9">
      <!-- 0 -->
      <g transform="translate(38.693125 234.278906) scale(0.14 -0.14)">
       <use xlink:href="#DejaVuSans-30"/>
      </g>
     </g>
    </g>
    <g id="ytick_2">
     <g id="line2d_9">
      <g>
       <use xlink:href="#mf73beaf0c0" x="54.600625" y="180.221538" style="stroke: #000000; stroke-width: 0.8"/>
      </g>
     </g>
     <g id="text_10">
      <!-- 100 -->
      <g transform="translate(20.878125 185.540445) scale(0.14 -0.14)">
       <use xlink:href="#DejaVuSans-31"/>
       <use xlink:href="#DejaVuSans-30" x="63.623047"/>
       <use xlink:href="#DejaVuSans-30" x="127.246094"/>
      </g>
     </g>
    </g>
    <g id="ytick_3">
     <g id="line2d_10">
      <g>
       <use xlink:href="#mf73beaf0c0" x="54.600625" y="131.483077" style="stroke: #000000; stroke-width: 0.8"/>
      </g>
     </g>
     <g id="text_11">
      <!-- 200 -->
      <g transform="translate(20.878125 136.801983) scale(0.14 -0.14)">
       <use xlink:href="#DejaVuSans-32"/>
       <use xlink:href="#DejaVuSans-30" x="63.623047"/>
       <use xlink:href="#DejaVuSans-30" x="127.246094"/>
      </g>
     </g>
    </g>
    <g id="ytick_4">
     <g id="line2d_11">
      <g>
       <use xlink:href="#mf73beaf0c0" x="54.600625" y="82.744615" style="stroke: #000000; stroke-width: 0.8"/>
      </g>
     </g>
     <g id="text_12">
      <!-- 300 -->
      <g transform="translate(20.878125 88.063522) scale(0.14 -0.14)">
       <use xlink:href="#DejaVuSans-33"/>
       <use xlink:href="#DejaVuSans-30" x="63.623047"/>
       <use xlink:href="#DejaVuSans-30" x="127.246094"/>
      </g>
     </g>
    </g>
    <g id="ytick_5">
     <g id="line2d_12">
      <g>
       <use xlink:href="#mf73beaf0c0" x="54.600625" y="34.006154" style="stroke: #000000; stroke-width: 0.8"/>
      </g>
     </g>
     <g id="text_13">
      <!-- 400 -->
      <g transform="translate(20.878125 39.32506) scale(0.14 -0.14)">
       <defs>
        <path id="DejaVuSans-34" d="M 2419 4116 
L 825 1625 
L 2419 1625 
L 2419 4116 
z
M 2253 4666 
L 3047 4666 
L 3047 1625 
L 3713 1625 
L 3713 1100 
L 3047 1100 
L 3047 0 
L 2419 0 
L 2419 1100 
L 313 1100 
L 313 1709 
L 2253 4666 
z
" transform="scale(0.015625)"/>
       </defs>
       <use xlink:href="#DejaVuSans-34"/>
       <use xlink:href="#DejaVuSans-30" x="63.623047"/>
       <use xlink:href="#DejaVuSans-30" x="127.246094"/>
      </g>
     </g>
    </g>
    <g id="text_14">
     <!-- Number of bus stops -->
     <g transform="translate(14.798438 170.103437) rotate(-90) scale(0.1 -0.1)">
      <defs>
       <path id="DejaVuSans-70" d="M 1159 525 
L 1159 -1331 
L 581 -1331 
L 581 3500 
L 1159 3500 
L 1159 2969 
Q 1341 3281 1617 3432 
Q 1894 3584 2278 3584 
Q 2916 3584 3314 3078 
Q 3713 2572 3713 1747 
Q 3713 922 3314 415 
Q 2916 -91 2278 -91 
Q 1894 -91 1617 61 
Q 1341 213 1159 525 
z
M 3116 1747 
Q 3116 2381 2855 2742 
Q 2594 3103 2138 3103 
Q 1681 3103 1420 2742 
Q 1159 2381 1159 1747 
Q 1159 1113 1420 752 
Q 1681 391 2138 391 
Q 2594 391 2855 752 
Q 3116 1113 3116 1747 
z
" transform="scale(0.015625)"/>
      </defs>
      <use xlink:href="#DejaVuSans-4e"/>
      <use xlink:href="#DejaVuSans-75" x="74.804688"/>
      <use xlink:href="#DejaVuSans-6d" x="138.183594"/>
      <use xlink:href="#DejaVuSans-62" x="235.595703"/>
      <use xlink:href="#DejaVuSans-65" x="299.072266"/>
      <use xlink:href="#DejaVuSans-72" x="360.595703"/>
      <use xlink:href="#DejaVuSans-20" x="401.708984"/>
      <use xlink:href="#DejaVuSans-6f" x="433.496094"/>
      <use xlink:href="#DejaVuSans-66" x="494.677734"/>
      <use xlink:href="#DejaVuSans-20" x="529.882812"/>
      <use xlink:href="#DejaVuSans-62" x="561.669922"/>
      <use xlink:href="#DejaVuSans-75" x="625.146484"/>
      <use xlink:href="#DejaVuSans-73" x="688.525391"/>
      <use xlink:href="#DejaVuSans-20" x="740.625"/>
      <use xlink:href="#DejaVuSans-73" x="772.412109"/>
      <use xlink:href="#DejaVuSans-74" x="824.511719"/>
      <use xlink:href="#DejaVuSans-6f" x="863.720703"/>
      <use xlink:href="#DejaVuSans-70" x="924.902344"/>
      <use xlink:href="#DejaVuSans-73" x="988.378906"/>
     </g>
    </g>
   </g>
   <g id="line2d_13">
    <path d="M 79.964261 228.96 
L 79.964261 150.003692 
L 80.135233 150.003692 
L 80.135233 133.432615 
L 80.306205 133.432615 
L 80.306205 122.710154 
L 80.477176 122.710154 
L 80.477176 117.348923 
L 80.648148 117.348923 
L 80.648148 111.987692 
L 80.819119 111.987692 
L 80.819119 106.139077 
L 80.990091 106.139077 
L 80.990091 102.727385 
L 81.161063 102.727385 
L 81.161063 98.340923 
L 81.332034 98.340923 
L 81.332034 97.853538 
L 81.503006 97.853538 
L 81.503006 95.416615 
L 81.673977 95.416615 
L 81.673977 93.467077 
L 81.844949 93.467077 
L 81.844949 92.979692 
L 82.015921 92.979692 
L 82.015921 91.517538 
L 82.186892 91.517538 
L 82.186892 90.542769 
L 82.357864 90.542769 
L 82.357864 89.080615 
L 82.528835 89.080615 
L 82.528835 87.131077 
L 82.699807 87.131077 
L 82.699807 85.181538 
L 82.870779 85.181538 
L 82.870779 84.206769 
L 83.04175 84.206769 
L 83.04175 83.719385 
L 83.212722 83.719385 
L 83.212722 83.232 
L 83.383693 83.232 
L 83.383693 82.744615 
L 83.554665 82.744615 
L 83.554665 81.769846 
L 83.725636 81.769846 
L 83.725636 80.795077 
L 83.896608 80.795077 
L 83.896608 79.820308 
L 84.06758 79.820308 
L 84.06758 78.358154 
L 84.238551 78.358154 
L 84.238551 77.870769 
L 84.751466 77.870769 
L 84.751466 77.383385 
L 85.093409 77.383385 
L 85.093409 76.408615 
L 85.264381 76.408615 
L 85.264381 75.921231 
L 85.777296 75.921231 
L 85.777296 75.433846 
L 85.948267 75.433846 
L 85.948267 74.946462 
L 86.119239 74.946462 
L 86.119239 73.971692 
L 86.29021 73.971692 
L 86.29021 73.484308 
L 86.461182 73.484308 
L 86.461182 72.996923 
L 86.974097 72.996923 
L 86.974097 72.509538 
L 87.31604 72.509538 
L 87.31604 72.022154 
L 87.487012 72.022154 
L 87.487012 71.534769 
L 87.828955 71.534769 
L 87.828955 70.56 
L 87.999926 70.56 
L 87.999926 69.585231 
L 88.170898 69.585231 
L 88.170898 69.097846 
L 88.34187 69.097846 
L 88.34187 68.610462 
L 88.512841 68.610462 
L 88.512841 68.123077 
L 88.683813 68.123077 
L 88.683813 67.635692 
L 88.854784 67.635692 
L 88.854784 67.148308 
L 89.196728 67.148308 
L 89.196728 66.660923 
L 89.538671 66.660923 
L 89.538671 65.686154 
L 89.880614 65.686154 
L 89.880614 65.198769 
L 90.393529 65.198769 
L 90.393529 64.711385 
L 90.735472 64.711385 
L 90.735472 64.224 
L 91.248387 64.224 
L 91.248387 63.736615 
L 91.419358 63.736615 
L 91.419358 62.761846 
L 91.932273 62.761846 
L 91.932273 61.299692 
L 92.103245 61.299692 
L 92.103245 60.812308 
L 92.445188 60.812308 
L 92.445188 60.324923 
L 92.61616 60.324923 
L 92.61616 59.837538 
L 93.129074 59.837538 
L 93.129074 59.350154 
L 93.300046 59.350154 
L 93.300046 58.375385 
L 93.812961 58.375385 
L 93.812961 57.888 
L 95.009762 57.888 
L 95.009762 57.400615 
L 95.180733 57.400615 
L 95.180733 56.913231 
L 95.693648 56.913231 
L 95.693648 56.425846 
L 96.719478 56.425846 
L 96.719478 55.938462 
L 97.403364 55.938462 
L 97.403364 54.963692 
L 97.574336 54.963692 
L 97.574336 54.476308 
L 98.771137 54.476308 
L 98.771137 53.501538 
L 98.942109 53.501538 
L 98.942109 53.014154 
L 99.11308 53.014154 
L 99.11308 52.526769 
L 99.284052 52.526769 
L 99.284052 51.552 
L 99.455023 51.552 
L 99.455023 51.064615 
L 99.967938 51.064615 
L 99.967938 50.577231 
L 100.309881 50.577231 
L 100.309881 50.089846 
L 100.480853 50.089846 
L 100.480853 49.602462 
L 101.164739 49.602462 
L 101.164739 49.115077 
L 102.703484 49.115077 
L 102.703484 48.140308 
L 103.045427 48.140308 
L 103.045427 47.652923 
L 103.216399 47.652923 
L 103.216399 47.165538 
L 103.729313 47.165538 
L 103.729313 46.678154 
L 104.242228 46.678154 
L 104.242228 46.190769 
L 105.097086 46.190769 
L 105.097086 45.703385 
L 105.439029 45.703385 
L 105.439029 45.216 
L 105.610001 45.216 
L 105.610001 44.728615 
L 106.63583 44.728615 
L 106.63583 43.753846 
L 106.977774 43.753846 
L 106.977774 43.266462 
L 107.490688 43.266462 
L 107.490688 42.779077 
L 107.66166 42.779077 
L 107.66166 42.291692 
L 108.345546 42.291692 
L 108.345546 41.804308 
L 108.858461 41.804308 
L 108.858461 41.316923 
L 109.884291 41.316923 
L 109.884291 40.829538 
L 111.081092 40.829538 
L 111.081092 40.342154 
L 111.93595 40.342154 
L 111.93595 39.854769 
L 112.790808 39.854769 
L 112.790808 39.367385 
L 113.132751 39.367385 
L 113.132751 38.88 
L 115.013439 38.88 
L 115.013439 38.392615 
L 115.526353 38.392615 
L 115.526353 37.905231 
L 118.774814 37.905231 
L 118.774814 37.417846 
L 120.826473 37.417846 
L 120.826473 36.930462 
L 124.929791 36.930462 
L 124.929791 36.443077 
L 126.468536 36.443077 
L 126.468536 35.955692 
L 128.178252 35.955692 
L 128.178252 35.468308 
L 128.862138 35.468308 
L 128.862138 34.980923 
L 131.084769 34.980923 
L 131.084769 34.006154 
L 133.820314 34.006154 
L 133.820314 33.518769 
L 134.675172 33.518769 
L 134.675172 33.031385 
L 136.384888 33.031385 
L 136.384888 32.544 
L 138.778491 32.544 
L 138.778491 32.056615 
L 139.462377 32.056615 
L 139.462377 31.569231 
L 139.633349 31.569231 
L 139.633349 31.081846 
L 139.975292 31.081846 
L 139.975292 30.594462 
L 140.659178 30.594462 
L 140.659178 30.107077 
L 145.10444 30.107077 
L 145.10444 29.619692 
L 148.694843 29.619692 
L 148.694843 29.132308 
L 152.285247 29.132308 
L 152.285247 28.644923 
L 152.969133 28.644923 
L 152.969133 28.157538 
L 155.704679 28.157538 
L 155.704679 27.670154 
L 159.466054 27.670154 
L 159.466054 27.182769 
L 162.885486 27.182769 
L 162.885486 26.695385 
L 176.050299 26.695385 
L 176.050299 26.208 
L 176.734185 26.208 
L 176.734185 25.720615 
L 178.101958 25.720615 
L 178.101958 25.233231 
L 181.692361 25.233231 
L 181.692361 24.745846 
L 183.914992 24.745846 
L 183.914992 24.258462 
L 187.847339 24.258462 
L 187.847339 23.771077 
L 188.873168 23.771077 
L 188.873168 23.283692 
L 189.728026 23.283692 
L 189.728026 22.796308 
L 196.737862 22.796308 
L 196.737862 21.821538 
L 201.86701 21.821538 
L 201.86701 21.334154 
L 202.892839 21.334154 
L 202.892839 20.846769 
L 205.628385 20.846769 
L 205.628385 20.359385 
L 206.654214 20.359385 
L 206.654214 19.872 
L 211.612391 19.872 
L 211.612391 19.384615 
L 212.467249 19.384615 
L 212.467249 18.897231 
L 215.202794 18.897231 
L 215.202794 18.409846 
L 216.91251 18.409846 
L 216.91251 17.922462 
L 226.48692 17.922462 
L 226.48692 17.435077 
L 229.906352 17.435077 
L 229.906352 16.947692 
L 238.625903 16.947692 
L 238.625903 16.460308 
L 240.677562 16.460308 
L 240.677562 15.972923 
L 252.474602 15.972923 
L 252.474602 15.485538 
L 255.210148 15.485538 
L 255.210148 14.998154 
L 276.068683 14.998154 
L 276.068683 14.510769 
L 277.094512 14.510769 
L 277.094512 14.023385 
L 281.197831 14.023385 
L 281.197831 13.536 
L 283.078518 13.536 
L 283.078518 13.048615 
L 308.895229 13.048615 
L 308.895229 12.561231 
L 312.485633 12.561231 
L 312.485633 12.073846 
L 325.992389 12.073846 
L 325.992389 11.586462 
L 334.71194 11.586462 
L 334.71194 11.099077 
L 368.222373 11.099077 
L 368.222373 10.611692 
L 385.319533 10.611692 
L 385.319533 10.124308 
L 389.422851 10.124308 
L 389.422851 9.636923 
L 393.013255 9.636923 
L 393.013255 9.149538 
L 398.655318 9.149538 
L 398.655318 8.662154 
L 400.02309 8.662154 
L 400.02309 8.174769 
L 437.123927 8.174769 
L 437.123927 7.687385 
L 587.236989 7.687385 
L 587.236989 7.2 
L 587.236989 7.2 
" clip-path="url(#p80633288a0)" style="fill: none; stroke: #1e90ff; stroke-width: 1.5; stroke-linecap: square"/>
   </g>
   <g id="patch_3">
    <path d="M 54.600625 228.96 
L 54.600625 7.2 
" style="fill: none; stroke: #000000; stroke-width: 0.8; stroke-linejoin: miter; stroke-linecap: square"/>
   </g>
   <g id="patch_4">
    <path d="M 612.600625 228.96 
L 612.600625 7.2 
" style="fill: none; stroke: #000000; stroke-width: 0.8; stroke-linejoin: miter; stroke-linecap: square"/>
   </g>
   <g id="patch_5">
    <path d="M 54.600625 228.96 
L 612.600625 228.96 
" style="fill: none; stroke: #000000; stroke-width: 0.8; stroke-linejoin: miter; stroke-linecap: square"/>
   </g>
   <g id="patch_6">
    <path d="M 54.600625 7.2 
L 612.600625 7.2 
" style="fill: none; stroke: #000000; stroke-width: 0.8; stroke-linejoin: miter; stroke-linecap: square"/>
   </g>
  </g>
 </g>
 <defs>
  <clipPath id="p80633288a0">
   <rect x="54.600625" y="7.2" width="558" height="221.76"/>
  </clipPath>
 </defs>
</svg>
